<?xml version="1.0" encoding="UTF-8"?><svg id="Calque_1" xmlns="http://www.w3.org/2000/svg" viewBox="0 0 1920 1080"><defs><style>.cls-1{fill:#212121;font-family:OTRtype-Regular, 'OTR type';font-size:120px;font-variation-settings:'wght' 100;}.cls-2{fill:#ddd;stroke:#212121;stroke-miterlimit:10;stroke-width:9px;}</style></defs><polygon class="cls-2" points="180 381 362.21 381 428.61 447.39 428.61 700 180 700 180 381"/><text class="cls-1" transform="translate(223 660.95)"><tspan x="0" y="0">Mo</tspan></text><polygon class="cls-2" points="507 381 689.21 381 755.61 447.39 755.61 700 507 700 507 381"/><text class="cls-1" transform="translate(550 660.95)"><tspan x="0" y="0">Gr</tspan></text><polygon class="cls-2" points="834 381 1016.21 381 1082.61 447.39 1082.61 700 834 700 834 381"/><text class="cls-1" transform="translate(877 660.95)"><tspan x="0" y="0">Ux</tspan></text><polygon class="cls-2" points="1161 381 1343.21 381 1409.61 447.39 1409.61 700 1161 700 1161 381"/><text class="cls-1" transform="translate(1204 660.95)"><tspan x="0" y="0">Vi</tspan></text><polygon class="cls-2" points="1488 381 1670.21 381 1736.61 447.39 1736.61 700 1488 700 1488 381"/><text class="cls-1" transform="translate(1531 660.95)"><tspan x="0" y="0">3d</tspan></text></svg>