<?xml version="1.0" encoding="UTF-8"?><svg id="Calque_1" xmlns="http://www.w3.org/2000/svg" viewBox="0 0 1920 1080"><defs><style>.cls-1{fill:none;stroke:#000;stroke-miterlimit:10;stroke-width:2px;}</style></defs><path class="cls-1" d="m694.36,723.3c55.8-15.47,106.84-47.7,144.81-91.43,9.4-10.83,18.19-22.69,22.1-36.48,3.91-13.79,2.12-29.93-7.65-40.41-16.83-18.06-48.77-10.76-65.46,7.44-19.31,21.06-24.26,54.1-11.97,79.9,12.29,25.8,41.07,42.77,69.59,41.03,26.01-1.58,49.03-16.91,69.37-33.21,41.87-33.55,79.09-74.25,101.79-122.87,22.69-48.62,29.81-105.81,12.37-156.55"/><path class="cls-1" d="m1008.11,465.79c9.62-48.27,13.14-97.75,10.45-146.89,14.16,38.59,31.5,76.02,51.79,111.77-1.64-3.37-3.28-6.73-4.92-10.1"/></svg>